<svg xmlns="http://www.w3.org/2000/svg" width="980" height="620" viewBox="0 0 980 620">
<rect width="100%" height="100%" fill="#fbfaf5"/>
<text x="90" y="38" font-size="28" font-family="monospace" fill="#111">CPU memmove Sweep</text>
<text x="90" y="62" font-size="16" font-family="monospace" fill="#555">gem5 KVM->TIMING, raw source: /home/wq/sh/SimCXL/exp/DMA/data/raw/cpu_memmove_20260310_cpu_memmove_2m</text>
<line x1="90" y1="530.0" x2="940" y2="530.0" stroke="#d9d4c7" stroke-width="1"/>
<text x="78" y="535.0" text-anchor="end" font-size="14" font-family="monospace" fill="#444">0.0</text>
<line x1="90" y1="455.0" x2="940" y2="455.0" stroke="#d9d4c7" stroke-width="1"/>
<text x="78" y="460.0" text-anchor="end" font-size="14" font-family="monospace" fill="#444">1.3</text>
<line x1="90" y1="380.0" x2="940" y2="380.0" stroke="#d9d4c7" stroke-width="1"/>
<text x="78" y="385.0" text-anchor="end" font-size="14" font-family="monospace" fill="#444">2.7</text>
<line x1="90" y1="305.0" x2="940" y2="305.0" stroke="#d9d4c7" stroke-width="1"/>
<text x="78" y="310.0" text-anchor="end" font-size="14" font-family="monospace" fill="#444">4.0</text>
<line x1="90" y1="230.0" x2="940" y2="230.0" stroke="#d9d4c7" stroke-width="1"/>
<text x="78" y="235.0" text-anchor="end" font-size="14" font-family="monospace" fill="#444">5.3</text>
<line x1="90" y1="155.0" x2="940" y2="155.0" stroke="#d9d4c7" stroke-width="1"/>
<text x="78" y="160.0" text-anchor="end" font-size="14" font-family="monospace" fill="#444">6.7</text>
<line x1="90" y1="80.0" x2="940" y2="80.0" stroke="#d9d4c7" stroke-width="1"/>
<text x="78" y="85.0" text-anchor="end" font-size="14" font-family="monospace" fill="#444">8.0</text>
<line x1="90" y1="80" x2="90" y2="530" stroke="#333" stroke-width="2"/>
<line x1="90" y1="530" x2="940" y2="530" stroke="#333" stroke-width="2"/>
<line x1="90.0" y1="530" x2="90.0" y2="538" stroke="#333" stroke-width="2"/>
<text x="90.0" y="558" text-anchor="middle" font-size="15" font-family="monospace" fill="#222">1</text>
<line x1="373.3" y1="530" x2="373.3" y2="538" stroke="#333" stroke-width="2"/>
<text x="373.3" y="558" text-anchor="middle" font-size="15" font-family="monospace" fill="#222">2</text>
<line x1="656.7" y1="530" x2="656.7" y2="538" stroke="#333" stroke-width="2"/>
<text x="656.7" y="558" text-anchor="middle" font-size="15" font-family="monospace" fill="#222">4</text>
<line x1="940.0" y1="530" x2="940.0" y2="538" stroke="#333" stroke-width="2"/>
<text x="940.0" y="558" text-anchor="middle" font-size="15" font-family="monospace" fill="#222">8</text>
<polyline fill="none" stroke="#0c7c59" stroke-width="4" points="90.0,489.3 373.3,450.4 656.7,373.2 940.0,210.8"/>
<circle cx="90.0" cy="489.3" r="5.5" fill="#c43d2f"/>
<text x="90.0" y="477.3" text-anchor="middle" font-size="14" font-family="monospace" fill="#222">0.723</text>
<circle cx="373.3" cy="450.4" r="5.5" fill="#c43d2f"/>
<text x="373.3" y="438.4" text-anchor="middle" font-size="14" font-family="monospace" fill="#222">1.415</text>
<circle cx="656.7" cy="373.2" r="5.5" fill="#c43d2f"/>
<text x="656.7" y="361.2" text-anchor="middle" font-size="14" font-family="monospace" fill="#222">2.787</text>
<circle cx="940.0" cy="210.8" r="5.5" fill="#c43d2f"/>
<text x="940.0" y="198.8" text-anchor="middle" font-size="14" font-family="monospace" fill="#222">5.675</text>
<text x="515.0" y="592" text-anchor="middle" font-size="18" font-family="monospace" fill="#111">N (CPU cores / threads)</text>
<text x="26" y="305.0" text-anchor="middle" font-size="18" font-family="monospace" fill="#111" transform="rotate(-90 26 305.0)">Bandwidth (GiB/s)</text>
</svg>
